<svg width="90" height="36" viewBox="0 0 90 36" fill="none" xmlns="http://www.w3.org/2000/svg">
<path d="M82.0488 21.6513L76.0413 11.247C75.9921 11.161 75.9005 11.1079 75.8013 11.1079H71.8673C71.8282 11.1079 71.7973 11.1225 71.7636 11.137C71.7518 11.1352 71.7409 11.1279 71.7291 11.1279H69.5603C69.5612 11.107 69.5621 10.5616 69.5639 10.5417C69.7202 7.75834 72.1545 7.05297 72.9844 6.9048C73.1161 6.88126 73.2115 6.7659 73.2098 6.63211L73.2053 3.73245C73.2052 3.6564 73.1737 3.58375 73.1183 3.53163C73.0629 3.47951 72.9885 3.45252 72.9126 3.45703C71.3364 3.55793 65.8789 4.78869 65.5916 10.5417L65.588 11.127H63.9191C63.8552 11.1273 63.7941 11.1529 63.749 11.1982C63.704 11.2436 63.6789 11.3049 63.6791 11.3688V14.1794C63.6791 14.313 63.7864 14.4221 63.9191 14.4221H65.328C65.4598 14.4221 65.568 14.5303 65.568 14.6621V26.8834C65.568 27.0333 65.6889 27.1542 65.838 27.1542H69.2648C69.3419 27.1533 69.4148 27.1192 69.4648 27.0606C69.5257 27.01 69.5612 26.9352 69.5621 26.8561V14.6721C69.5621 14.5994 69.5921 14.533 69.6394 14.4839C69.6857 14.4449 69.7442 14.4231 69.8048 14.4221L73.1126 14.3776C73.2127 14.3765 73.3055 14.4297 73.3553 14.5166L77.4748 21.6522C77.523 21.736 77.5244 21.8388 77.4784 21.9239L72.0154 32.0873C71.9692 32.1733 71.9714 32.2773 72.0212 32.3612C72.0711 32.4451 72.1614 32.4968 72.259 32.4973H76.2004C76.3019 32.4973 76.395 32.4412 76.4431 32.3518L82.0515 21.9239C82.0981 21.8388 82.0971 21.7355 82.0488 21.6513ZM87.7154 11.4915L83.4132 19.4979C83.3655 19.5854 83.2746 19.6406 83.1749 19.6425C83.0753 19.6443 82.9823 19.5926 82.9314 19.507L80.868 15.9819C80.8188 15.8981 80.8171 15.7946 80.8635 15.7092L83.275 11.2443C83.3217 11.1558 83.4131 11.1 83.5132 11.0989C84.1486 11.0916 86.4874 11.0716 87.4782 11.0825C87.5751 11.0838 87.6642 11.1359 87.7128 11.2197C87.7615 11.3036 87.7624 11.4068 87.7154 11.4915ZM58.757 17.3909H51.0733C50.979 17.392 50.891 17.3437 50.8414 17.2635C50.7917 17.1833 50.7876 17.083 50.8307 16.9991C51.2379 16.1964 52.4123 14.4457 54.9193 14.4457C57.3808 14.4457 58.577 16.1937 58.9979 16.9963C59.0409 17.0803 59.0372 17.1806 58.988 17.2611C58.9389 17.3417 58.8513 17.3908 58.757 17.3909ZM54.9347 10.4953C50.2843 10.4953 46.5148 14.2858 46.5148 18.9607C46.5148 23.6365 50.2843 27.426 54.9347 27.426C57.4453 27.426 60.6886 26.1898 62.482 22.6911C62.5237 22.6067 62.519 22.5068 62.4694 22.4267C62.4199 22.3467 62.3326 22.2978 62.2384 22.2975H58.1162C58.0482 22.2979 57.983 22.3247 57.9344 22.3721C57.6264 22.6661 57.2747 22.9105 56.8918 23.0965C56.3555 23.3565 55.7055 23.5256 54.9184 23.5256C52.4396 23.5256 51.2433 21.8985 50.907 21.035C50.8766 20.9521 50.8887 20.8596 50.9395 20.7874C50.9903 20.7152 51.0733 20.6726 51.1615 20.6732L62.9347 20.675C63.0703 20.6711 63.1834 20.5702 63.2028 20.4359C63.2437 20.106 63.2992 19.7724 63.3174 19.4324C63.4615 17.117 62.6433 14.8449 61.0561 13.1529C59.4689 11.461 57.2537 10.4993 54.9338 10.4953H54.9347ZM37.5604 23.5219C36.0005 23.8843 34.364 23.4147 33.2336 22.2803C32.1013 21.1438 31.6332 19.5047 31.9947 17.9417C32.3728 16.2148 33.7193 14.8647 35.4452 14.4821C37.0051 14.1196 38.6416 14.5892 39.7719 15.7238C40.9045 16.8601 41.3725 18.4993 41.0109 20.0623C40.6326 21.7891 39.2861 23.1391 37.5604 23.5219ZM40.1446 11.2888C36.3696 9.63903 33.1745 11.2788 32.1583 11.9351C31.6256 12.2805 31.6493 11.1534 31.1402 11.1534H28.1497C28.0779 11.1532 28.009 11.1815 27.9582 11.2321C27.9074 11.2828 27.8788 11.3516 27.8788 11.4234V32.2727C27.8788 32.4218 27.9997 32.5436 28.1488 32.5436H31.5447C31.6165 32.5436 31.6853 32.515 31.736 32.4642C31.7866 32.4134 31.8149 32.3445 31.8147 32.2727V26.3325C31.8147 26.1235 32.041 25.9917 32.2201 26.0989C32.9691 26.5534 34.6907 27.4269 36.8068 27.4269C41.7244 27.4269 45.6694 23.1656 45.164 18.1326C44.8614 15.1266 42.9052 12.4969 40.1446 11.2888ZM11.9307 23.5219C10.3707 23.8843 8.73432 23.4147 7.60392 22.2803C6.47189 21.1436 6.00418 19.5046 6.36588 17.9417C6.74396 16.2148 8.09051 14.8647 9.81638 14.4821C11.3763 14.1196 13.0128 14.5892 14.1431 15.7238C15.2753 16.8603 15.7431 18.4995 15.3812 20.0623C15.0031 21.7892 13.6565 23.1393 11.9307 23.5219ZM14.5158 11.2888C10.7408 9.63903 7.54665 11.2788 6.52859 11.9351C5.99683 12.2805 6.01956 11.1534 5.51053 11.1534H2.51997C2.37087 11.1534 2.25 11.2743 2.25 11.4234V32.2727C2.25 32.4218 2.37089 32.5436 2.51997 32.5436H5.91502C5.98678 32.5436 6.05559 32.515 6.10624 32.4642C6.1569 32.4134 6.18523 32.3445 6.18499 32.2727V26.3325C6.18499 26.1235 6.41133 25.9917 6.5904 26.0989C7.34031 26.5534 9.06193 27.4269 11.1771 27.4269C16.0966 27.4269 20.0397 23.1656 19.5343 18.1326C19.2316 15.1266 17.2764 12.4969 14.5158 11.2888ZM25.1646 11.1543H21.7623C21.6908 11.1538 21.6221 11.1819 21.5715 11.2322C21.5208 11.2825 21.4923 11.351 21.4923 11.4225V26.967C21.4923 27.117 21.6141 27.2379 21.7632 27.2379H25.1655C25.3147 27.2374 25.4355 27.1162 25.4355 26.967V11.4243C25.435 11.2749 25.314 11.1539 25.1646 11.1534" fill="#AEB2BA"/>
</svg>
